<?xml version="1.0" standalone="no"?>
<!DOCTYPE svg PUBLIC "-//W3C//DTD SVG 20010904//EN"
 "http://www.w3.org/TR/2001/REC-SVG-20010904/DTD/svg10.dtd">
<svg version="1.0" xmlns="http://www.w3.org/2000/svg"
 width="463.000000pt" height="368.000000pt" viewBox="0 0 463.000000 368.000000"
 preserveAspectRatio="xMidYMid meet">
<metadata>
Created by potrace 1.13, written by Peter Selinger 2001-2015
</metadata>
<g transform="translate(0.000000,368.000000) scale(0.100000,-0.100000)"
fill="#000000" stroke="none">
<path d="M2240 3659 c0 -27 -26 -74 -67 -122 -18 -20 -33 -45 -33 -55 0 -38
-32 -138 -50 -157 -11 -12 -24 -42 -28 -67 -5 -25 -23 -71 -40 -103 -18 -32
-32 -67 -32 -78 0 -11 -16 -41 -35 -67 -19 -26 -35 -55 -35 -64 0 -29 -31 -30
-89 -1 -31 16 -64 32 -73 37 -10 4 -28 8 -40 8 -13 0 -46 16 -73 36 -75 54
-130 77 -155 64 -36 -19 -40 -44 -39 -242 1 -145 -3 -206 -14 -245 -11 -39
-14 -91 -13 -195 l3 -143 -19 45 c-11 25 -26 52 -34 61 -9 10 -16 23 -18 31
-1 7 -9 24 -18 38 -9 14 -19 36 -23 50 -10 34 -63 89 -103 107 -30 12 -37 12
-57 -1 -13 -9 -27 -26 -31 -38 -4 -13 -21 -46 -39 -74 -33 -51 -51 -92 -47
-107 1 -4 -11 -28 -28 -53 -17 -24 -29 -48 -26 -53 7 -11 -102 -26 -190 -25
-38 0 -110 10 -160 22 -173 41 -289 66 -296 64 -4 -1 -23 5 -43 13 -28 12 -40
13 -58 4 -55 -29 -49 -56 28 -136 36 -37 65 -72 65 -79 0 -6 9 -23 21 -38 15
-19 21 -43 22 -81 1 -30 5 -55 10 -55 4 0 7 -6 7 -13 0 -8 9 -22 20 -32 11
-10 18 -20 16 -23 -7 -6 24 -84 41 -103 12 -14 14 -32 14 -134 0 -63 -3 -85
-12 -90 -5 -4 -9 -17 -9 -29 0 -31 -48 -53 -78 -37 -22 12 -206 23 -229 14 -8
-3 -21 -19 -29 -35 -13 -26 -14 -32 -1 -52 8 -12 34 -31 58 -41 24 -11 46 -22
49 -25 55 -59 238 -194 305 -225 22 -10 51 -30 65 -43 14 -14 50 -41 80 -62
30 -21 66 -48 81 -61 14 -13 41 -36 61 -51 19 -15 48 -41 64 -59 16 -17 38
-39 48 -48 10 -9 27 -24 37 -33 10 -10 35 -24 55 -33 33 -13 76 -43 114 -79 8
-8 27 -20 42 -27 15 -6 30 -20 33 -31 4 -10 10 -18 15 -18 5 0 19 -21 31 -47
24 -52 22 -106 -5 -158 -9 -17 -16 -38 -16 -47 0 -10 -9 -34 -21 -55 -11 -20
-24 -58 -28 -85 -7 -45 -6 -48 13 -48 12 0 37 4 56 9 19 5 64 12 99 15 36 4
110 15 165 26 56 11 139 24 186 30 47 5 108 14 135 20 28 5 86 14 130 20 44 6
101 14 127 19 114 18 146 -27 116 -162 -30 -137 -37 -127 97 -127 131 0 124
-6 100 95 -8 33 -15 86 -15 117 0 71 17 92 69 85 20 -3 88 -12 151 -21 63 -8
140 -20 170 -26 30 -5 96 -15 145 -20 193 -22 293 -46 330 -79 29 -26 52 -32
79 -20 45 21 46 45 9 158 -18 58 -39 112 -47 120 -8 10 -13 41 -12 86 1 61 4
71 23 81 33 16 62 44 69 66 3 11 17 36 30 55 13 20 24 47 24 60 0 32 17 63 49
88 14 10 37 31 51 45 14 14 41 37 60 51 19 15 55 45 79 68 24 23 50 41 56 41
7 0 37 11 66 24 52 24 61 25 226 21 139 -3 174 -1 184 11 6 8 18 14 26 14 23
0 113 34 113 42 0 5 10 8 22 8 35 0 128 49 137 73 17 46 -6 74 -84 103 -52 19
-56 21 -79 23 -7 0 -30 12 -50 26 -20 14 -48 28 -61 31 -14 3 -25 10 -25 14 0
4 -18 15 -40 24 -32 13 -40 21 -40 42 0 14 4 33 9 42 5 10 11 42 14 72 3 32
21 94 42 145 20 50 44 107 51 128 8 21 31 68 52 105 68 122 93 187 83 215 -19
49 -69 56 -171 25 -43 -14 -160 -67 -180 -83 -39 -31 -179 -39 -245 -14 -123
46 -154 76 -179 168 -9 35 -26 84 -36 107 -11 24 -20 48 -20 55 0 19 -71 152
-89 166 -22 17 -66 16 -81 -2 -6 -8 -14 -33 -17 -56 -7 -47 -10 -52 -109 -156
l-71 -75 -21 33 c-29 47 -43 87 -33 93 10 7 7 59 -5 77 -10 15 -31 135 -42
239 -7 63 -7 115 -1 252 2 54 -1 71 -16 88 -29 32 -65 25 -115 -22 -25 -23
-72 -61 -105 -85 -107 -79 -115 -86 -115 -99 0 -25 -21 -25 -55 1 -19 14 -35
32 -35 40 0 20 -32 85 -42 85 -4 0 -8 8 -8 19 0 27 -28 91 -41 91 -13 0 -39
62 -39 93 0 14 -7 30 -16 38 -46 38 -72 158 -39 177 13 7 12 10 -7 19 -13 6
-41 15 -63 19 -27 6 -43 17 -52 34 -23 45 -53 119 -53 129 0 6 -9 11 -20 11
-14 0 -20 -7 -20 -21z m685 -1098 c50 -18 65 -33 65 -65 0 -14 9 -48 20 -76
21 -54 10 -69 -15 -20 -20 38 -54 52 -105 44 -35 -6 -44 -2 -86 32 l-47 39
-141 0 -141 0 -31 -30 c-29 -28 -31 -34 -27 -90 5 -83 5 -95 -3 -139 -14 -85
49 -248 90 -233 19 8 20 21 3 39 -23 24 -34 63 -36 128 -2 54 1 69 17 84 13
11 22 14 27 7 3 -6 17 -11 30 -11 37 0 104 -30 116 -51 7 -14 5 -23 -11 -39
l-21 -21 44 -42 c32 -30 50 -60 67 -107 13 -36 29 -70 38 -76 12 -9 12 -14 1
-32 -18 -28 -41 -36 -85 -28 -36 7 -60 37 -50 63 8 21 -4 63 -19 63 -6 0 -16
-15 -21 -32 -8 -28 -16 -34 -52 -42 -23 -6 -42 -14 -42 -19 0 -4 -4 -6 -9 -3
-4 3 -16 -3 -26 -14 -10 -11 -23 -20 -29 -20 -12 0 -51 -54 -81 -112 -23 -45
-42 -47 -84 -12 -38 32 -83 30 -91 -4 -5 -22 -10 -23 -120 -27 -108 -4 -195
-18 -230 -35 -17 -9 -63 24 -73 53 -9 25 -87 25 -87 -1 0 -20 20 -41 60 -60
14 -7 34 -29 45 -48 11 -20 31 -42 45 -49 84 -42 144 -65 171 -65 58 0 24 30
-93 80 -47 20 -49 23 -34 38 9 9 51 22 98 29 46 8 107 18 136 23 30 5 61 15
70 23 11 9 32 12 60 9 l42 -4 0 -54 c0 -39 4 -56 15 -60 8 -4 15 -10 15 -15 0
-5 -12 -2 -27 8 -40 26 -53 39 -53 57 0 13 -12 16 -61 16 -77 0 -99 -11 -99
-52 0 -17 -7 -39 -15 -48 -14 -15 -14 -18 0 -30 32 -27 18 -46 -49 -64 -37
-10 -71 -14 -78 -10 -7 5 -21 10 -30 11 -9 2 -36 10 -60 19 -24 9 -61 19 -83
24 -52 11 -122 33 -131 43 -4 4 -14 7 -22 7 -9 0 -12 -3 -9 -6 3 -4 2 -15 -4
-25 -15 -29 6 -57 46 -65 19 -3 35 -11 35 -16 0 -6 7 -7 15 -4 9 3 36 -4 61
-15 24 -12 54 -19 67 -16 78 19 75 18 45 4 -26 -12 -26 -13 -8 -25 24 -15 57
-16 65 -2 3 6 16 10 28 10 22 0 22 -1 -3 -20 -22 -17 -23 -19 -7 -26 23 -9 67
1 119 26 39 19 43 19 60 3 22 -20 23 -33 3 -33 -16 0 -119 -51 -147 -73 -28
-22 -68 -110 -61 -136 3 -13 2 -22 -3 -19 -70 33 -109 48 -137 53 -51 10 -56
16 -62 80 -11 102 -23 121 -141 223 l-32 27 9 95 c5 52 7 163 3 246 -6 136 -4
155 13 195 11 24 27 50 36 58 10 7 17 24 17 37 0 12 4 26 10 29 15 9 29 74 31
150 1 39 9 97 18 130 15 56 20 62 66 87 46 25 59 28 170 29 66 0 140 4 165 7
25 4 218 7 430 7 305 0 393 -3 425 -14z m195 -337 c0 -2 11 -22 25 -44 22 -34
25 -49 21 -98 -5 -72 -25 -232 -31 -252 -16 -56 -22 -210 -17 -475 1 -23 -6
-47 -15 -57 -11 -13 -16 -35 -14 -73 1 -30 -5 -70 -13 -90 l-15 -35 -85 0 -86
0 0 38 c0 41 19 72 81 132 42 41 60 103 58 208 -1 83 -7 101 -43 147 l-30 37
-75 -5 c-42 -3 -94 -10 -116 -15 -22 -6 -60 -16 -84 -22 -47 -11 -121 -58
-119 -75 1 -10 -4 -25 -23 -73 -5 -13 -12 -61 -15 -107 -12 -145 33 -200 163
-200 54 0 64 -3 69 -19 14 -43 -45 -52 -141 -21 -74 24 -100 39 -148 87 -55
53 -59 81 -12 86 30 3 30 3 32 72 1 45 7 77 17 92 9 12 16 32 16 44 0 12 9 43
20 69 20 47 19 65 -4 65 -27 0 -53 -45 -71 -120 -2 -8 -13 -40 -25 -70 -12
-30 -23 -63 -25 -72 -6 -28 -31 -59 -64 -79 -40 -24 -66 -24 -90 0 -11 11 -21
17 -24 15 -6 -6 -50 53 -70 95 -9 19 -17 49 -17 68 0 18 -5 33 -10 33 -17 0
-33 46 -26 74 6 26 27 33 60 20 17 -7 22 -44 6 -44 -19 0 -10 -63 15 -106 34
-58 74 -86 114 -78 17 4 36 12 42 20 6 7 22 82 36 166 28 177 53 233 119 279
52 36 88 37 136 4 45 -30 85 -32 140 -5 23 11 50 20 59 20 21 0 58 -57 79
-120 17 -52 43 -61 48 -16 5 44 -24 108 -73 159 -25 26 -49 47 -54 47 -10 0
-51 65 -51 81 0 5 9 9 20 9 13 0 28 13 41 35 19 31 25 34 63 33 55 -1 102 32
117 83 6 20 10 70 8 110 l-4 74 42 -63 c24 -35 43 -66 43 -68z m-810 -698 c0
-11 -19 -15 -25 -6 -3 5 1 10 9 10 9 0 16 -2 16 -4z m504 -49 c-3 -9 -10 -17
-15 -17 -11 0 -12 34 -2 44 11 11 24 -9 17 -27z m96 -26 c0 -17 -4 -32 -9 -35
-9 -6 -21 -71 -27 -146 -2 -24 -8 -58 -13 -75 -5 -16 -12 -43 -16 -60 l-8 -30
-7 26 c-4 15 -1 63 7 110 8 46 16 107 19 134 2 28 9 62 15 78 15 37 39 35 39
-2z m-590 13 c0 -16 -23 -44 -35 -44 -15 0 -21 31 -8 43 8 8 43 9 43 1z m-277
-41 c-7 -2 -19 -2 -25 0 -7 3 -2 5 12 5 14 0 19 -2 13 -5z m197 -185 c0 -16
-19 -7 -49 21 -17 16 -31 32 -31 36 0 9 80 -48 80 -57z m187 -68 c48 -45 58
-60 46 -64 -11 -5 -32 10 -65 44 -26 27 -55 50 -62 50 -20 0 -29 17 -14 23 25
10 34 6 95 -53z"/>
<path d="M1780 2463 c-14 -9 -40 -30 -58 -47 l-34 -31 5 -224 c4 -138 10 -228
16 -234 8 -8 11 54 11 212 0 219 0 223 23 242 12 10 24 18 27 19 3 0 5 -24 6
-52 1 -116 28 -424 37 -436 22 -29 28 20 17 155 -5 76 -10 183 -10 239 0 140
-1 139 172 130 73 -3 170 -7 216 -7 45 -1 82 -4 82 -8 0 -3 14 -7 30 -8 23 -2
30 2 30 16 0 17 -12 20 -127 25 -71 3 -164 10 -209 16 -117 15 -204 12 -234
-7z"/>
<path d="M1868 2382 c-13 -15 -1 -408 13 -434 14 -26 86 -24 367 6 l24 3 -2
213 c0 118 -2 215 -3 216 -1 2 -89 4 -196 6 -146 2 -195 0 -203 -10z m364
-134 c2 -57 1 -134 -2 -173 -5 -68 -6 -69 -35 -75 -16 -4 -40 -12 -53 -19 -14
-7 -59 -11 -121 -10 l-98 1 -7 82 c-3 44 -6 129 -6 189 l0 107 159 0 160 0 3
-102z"/>
<path d="M2313 2075 c0 -22 2 -30 4 -17 2 12 2 30 0 40 -3 9 -5 -1 -4 -23z"/>
<path d="M2304 1989 c-3 -6 -1 -16 5 -22 8 -8 11 -5 11 11 0 24 -5 28 -16 11z"/>
<path d="M2090 1898 c-47 -5 -87 -11 -89 -14 -11 -10 14 -19 59 -20 27 -1 52
-4 57 -7 18 -11 157 2 171 17 36 36 -23 43 -198 24z"/>
<path d="M1716 1861 c-9 -14 5 -42 18 -38 15 5 14 39 -1 44 -6 2 -14 0 -17 -6z"/>
<path d="M2121 1818 c-9 -24 4 -52 20 -42 12 7 11 51 -1 59 -6 3 -14 -4 -19
-17z"/>
<path d="M1858 1784 c-10 -21 -9 -27 3 -35 8 -5 18 -7 23 -6 17 5 29 34 23 51
-10 24 -36 19 -49 -10z"/>
<path d="M3947 3653 c-60 -7 -217 -107 -217 -139 0 -8 -4 -14 -9 -14 -15 0
-71 -120 -76 -162 -3 -20 1 -51 9 -69 l14 -33 446 2 c247 1 446 -2 446 -7 0
-10 -582 -25 -777 -20 -109 3 -133 1 -140 -11 -4 -8 -6 -92 -3 -186 7 -224 3
-248 -44 -291 -28 -26 -36 -41 -34 -61 3 -27 3 -27 78 -24 83 3 404 3 545 -1
50 -1 157 3 238 10 85 6 161 8 178 3 28 -8 29 -7 29 24 0 25 -6 35 -25 44 -25
12 -25 12 -25 149 0 76 -3 174 -6 218 -6 75 -4 83 20 117 27 40 26 54 -5 98
-10 14 -19 39 -21 55 -2 17 -5 32 -8 35 -3 3 -10 14 -16 25 -6 11 -17 20 -25
20 -16 0 -25 -34 -12 -44 16 -12 29 -46 25 -68 -3 -21 -9 -23 -63 -23 -32 0
-59 4 -59 8 0 4 16 23 35 42 34 33 35 36 35 109 0 91 -18 126 -82 168 -36 23
-54 27 -110 28 -61 0 -70 -3 -93 -27 -21 -23 -25 -37 -25 -92 0 -36 4 -76 9
-89 17 -45 81 -95 134 -106 44 -9 42 -35 -3 -39 -30 -2 -38 2 -51 26 -9 16
-22 29 -30 29 -8 0 -22 4 -31 8 -26 10 -23 -23 4 -52 l21 -23 -20 0 c-53 0
-53 1 -53 169 0 100 4 161 11 168 6 6 7 13 2 16 -13 8 -172 16 -216 10z m394
-48 c15 -3 45 -27 68 -51 36 -39 41 -50 41 -93 0 -33 -5 -53 -17 -63 -50 -43
-127 -28 -190 38 -38 39 -43 50 -43 90 0 76 49 104 141 79z m-241 -155 l0
-160 -159 0 c-182 0 -248 7 -255 27 -7 18 21 92 46 119 10 11 16 23 13 26 -10
9 104 107 148 127 30 14 66 20 125 20 l82 1 0 -160z m-364 -304 c5 -14 44 -18
44 -5 0 16 34 18 51 3 15 -13 21 -14 41 -3 30 17 38 17 67 2 20 -10 29 -9 53
5 27 16 28 15 50 -8 l22 -23 14 21 c18 28 39 28 62 0 l19 -23 16 23 c19 26 32
28 55 7 13 -12 21 -12 55 -1 33 12 42 12 61 0 18 -12 25 -12 50 0 25 14 30 14
46 -1 16 -14 20 -14 44 2 14 9 30 13 35 8 6 -6 13 -274 9 -369 0 -17 -445 -13
-462 4 -9 8 -15 53 -18 130 l-5 117 -115 3 c-99 2 -116 0 -127 -15 -9 -11 -13
-55 -13 -130 0 -112 0 -113 -25 -119 -42 -10 -75 3 -75 31 0 13 5 27 10 30 6
3 10 2 10 -3 0 -5 13 -7 29 -4 30 4 41 23 41 73 0 35 -22 52 -58 44 -27 -5
-30 -3 -36 26 -8 40 -8 137 0 167 7 25 41 30 50 8z m142 -168 c14 -14 16 -176
3 -197 -5 -8 -16 -11 -25 -8 -13 5 -16 24 -16 105 0 111 7 131 38 100z m133
-18 c11 -38 10 -136 -1 -164 -7 -20 -16 -26 -40 -26 l-30 0 0 103 c0 57 3 107
7 111 16 16 57 1 64 -24z m549 -267 l25 -10 -30 -6 c-49 -9 -815 -20 -878 -12
-64 8 -65 11 -10 31 31 12 111 14 453 11 245 -3 425 -8 440 -14z"/>
<path d="M4259 3567 c-36 -28 -30 -56 25 -113 54 -56 83 -66 110 -38 38 38 2
122 -64 148 -48 19 -50 19 -71 3z m94 -69 c9 -9 17 -22 17 -28 0 -14 -31 -12
-52 4 -10 7 -18 26 -18 41 0 25 2 26 18 14 9 -7 25 -21 35 -31z"/>
<path d="M3935 3576 c-11 -7 -31 -16 -45 -19 -14 -4 -51 -31 -83 -60 -58 -53
-76 -90 -77 -157 l0 -24 21 20 c11 12 21 28 23 36 6 41 75 117 138 152 34 19
61 26 101 26 38 0 57 4 60 14 3 8 -1 17 -9 20 -29 11 -109 6 -129 -8z"/>
<path d="M4470 2951 c0 -90 3 -121 14 -130 8 -7 16 -8 19 -4 3 4 6 63 6 131 2
117 1 122 -18 122 -20 0 -21 -6 -21 -119z"/>
<path d="M899 3434 c-11 -14 -10 -20 14 -40 16 -13 37 -24 48 -24 27 0 92 -34
134 -71 37 -33 78 -104 95 -169 11 -41 26 -50 48 -28 22 22 13 79 -23 144 -47
83 -115 142 -203 177 -83 31 -95 33 -113 11z"/>
<path d="M343 3248 c-62 -61 -113 -119 -113 -128 0 -19 113 -145 167 -186 l34
-26 120 121 119 122 -17 27 c-26 43 -166 182 -183 182 -8 0 -66 -50 -127 -112z
m182 -23 c30 -30 55 -60 55 -67 0 -8 -33 -47 -74 -87 -84 -82 -81 -82 -155 -7
-42 43 -44 46 -31 71 13 25 133 145 144 145 3 0 31 -25 61 -55z"/>
<path d="M913 3313 c-31 -12 0 -56 49 -68 30 -8 88 -67 88 -90 0 -8 3 -15 8
-15 4 0 12 -10 17 -22 6 -13 19 -23 30 -23 47 0 18 103 -48 169 -49 48 -103
66 -144 49z"/>
<path d="M820 3202 c-47 -16 -41 -75 16 -140 57 -65 95 -86 139 -78 40 8 52
32 28 58 -11 13 -16 32 -14 54 4 49 -21 74 -72 74 -26 0 -48 7 -61 19 -12 10
-28 16 -36 13z"/>
<path d="M574 2978 c-131 -128 -138 -141 -114 -203 12 -31 80 -99 121 -121 53
-27 80 -12 215 120 68 67 124 127 124 134 0 7 -39 53 -86 102 -63 65 -94 90
-111 90 -18 0 -58 -33 -149 -122z"/>
<path d="M893 2801 c-37 -32 -92 -86 -122 -121 l-54 -62 89 -91 c49 -50 89
-92 89 -93 0 -1 10 -5 23 -8 19 -6 39 9 132 100 84 82 110 113 110 133 0 20
-20 46 -77 103 -113 110 -109 109 -190 39z m181 -120 l20 -22 -79 -79 c-44
-44 -85 -80 -91 -80 -6 0 -36 27 -67 59 l-56 60 69 68 c38 37 75 73 82 79 10
9 24 3 58 -26 25 -21 54 -47 64 -59z"/>
<path d="M4624 1000 c0 -74 1 -105 3 -67 2 37 2 97 0 135 -2 37 -3 6 -3 -68z"/>
<path d="M1 1016 c-1 -30 3 -46 8 -40 5 5 6 27 1 49 l-8 40 -1 -49z"/>
<path d="M4323 940 c-45 -22 -94 -42 -108 -46 -14 -3 -25 -10 -25 -15 0 -5 -7
-9 -15 -9 -11 0 -15 -12 -15 -44 0 -39 -2 -44 -20 -39 -13 3 -24 19 -30 43
-15 55 -85 117 -141 124 -107 13 -179 15 -179 5 0 -6 -21 -29 -46 -52 -47 -43
-60 -64 -75 -127 -8 -34 3 -112 21 -158 8 -17 6 -24 -5 -28 -18 -7 -47 14 -39
27 5 9 -16 13 -46 9 -8 -1 -35 -11 -60 -22 -25 -11 -58 -26 -75 -33 -102 -44
-115 -53 -115 -82 1 -21 34 -120 44 -130 3 -3 6 -14 6 -24 0 -18 19 -29 50
-29 10 0 51 15 92 33 40 19 87 39 103 46 17 7 44 22 61 34 29 19 31 23 18 42
-7 11 -10 26 -5 33 5 8 17 -3 39 -34 32 -44 34 -45 80 -42 42 3 47 1 44 -16
-2 -11 -1 -35 3 -54 l6 -35 61 7 c33 3 77 14 97 25 20 10 50 24 66 30 17 6 43
22 59 34 33 27 32 56 -5 95 l-21 24 27 28 c22 23 26 34 21 57 -22 86 -17 106
14 62 29 -41 49 -44 104 -16 93 47 160 77 173 77 7 0 13 5 13 10 0 6 5 10 10
10 6 0 17 6 24 12 11 10 10 18 -5 45 -10 18 -19 36 -20 41 -3 15 -13 37 -22
47 -4 6 -17 25 -27 43 -11 17 -28 32 -37 31 -10 0 -55 -18 -100 -39z m-327
-67 c13 -10 43 -56 65 -103 23 -47 45 -93 50 -102 5 -10 9 -29 9 -43 0 -21
-12 -30 -82 -64 -101 -48 -190 -76 -212 -68 -9 4 -19 15 -22 24 -4 10 -17 42
-30 72 -35 79 -51 159 -38 188 4 10 8 20 9 23 13 39 55 72 113 91 38 12 108 3
138 -18z m344 -13 c0 -5 -5 -10 -11 -10 -5 0 -7 5 -4 10 3 6 8 10 11 10 2 0 4
-4 4 -10z m-35 -10 c-3 -5 -12 -10 -18 -10 -7 0 -6 4 3 10 19 12 23 12 15 0z
m135 -38 c0 -8 -118 -66 -157 -77 -13 -3 -23 -2 -23 3 0 13 75 52 99 52 10 0
24 7 31 15 13 16 50 21 50 7z m-900 -291 c-19 -10 -46 -21 -60 -25 -14 -4 -5
4 20 18 25 13 52 25 60 25 8 1 -1 -7 -20 -18z m73 -67 c-10 -7 -22 -14 -28
-14 -5 0 -32 -11 -59 -25 -27 -14 -55 -25 -63 -25 -23 0 -14 20 15 32 15 6 49
21 75 34 52 24 93 23 60 -2z"/>
<path d="M494 799 c-10 -17 13 -26 89 -34 39 -3 88 -15 109 -26 54 -27 128
-108 147 -159 22 -58 51 -67 51 -15 0 42 -64 144 -108 172 -15 10 -36 26 -46
35 -11 10 -25 18 -30 19 -6 0 -20 3 -31 5 -49 11 -174 13 -181 3z"/>
<path d="M521 731 c-29 -19 -4 -38 56 -43 79 -5 136 -44 173 -116 34 -67 46
-80 61 -65 17 17 -18 100 -61 147 -58 65 -183 106 -229 77z"/>
<path d="M4623 680 c0 -30 2 -43 4 -27 2 15 2 39 0 55 -2 15 -4 2 -4 -28z"/>
<path d="M277 633 c-21 -150 66 -296 220 -368 52 -25 63 -27 169 -23 98 3 115
6 128 23 7 10 12 25 9 31 -5 14 -84 74 -155 119 -26 17 -50 36 -53 44 -3 8 7
27 22 43 l28 30 -24 19 c-31 26 -36 25 -60 -16 l-21 -36 -27 18 c-16 9 -62 43
-104 75 -42 32 -81 58 -87 58 -7 0 -12 5 -12 10 0 6 -6 10 -14 10 -8 0 -16
-15 -19 -37z m71 -113 c14 -44 16 -60 7 -60 -7 0 -15 18 -19 40 -3 22 -11 40
-16 40 -6 0 -10 9 -10 20 0 39 18 19 38 -40z"/>
<path d="M526 641 c-12 -18 3 -31 37 -31 42 0 91 -31 119 -74 26 -40 46 -52
54 -32 8 21 -32 92 -64 115 -34 24 -136 39 -146 22z"/>
<path d="M4177 323 c-45 -56 -59 -63 -123 -63 -56 0 -64 -2 -64 -19 0 -37 90
-53 151 -27 56 23 112 97 87 113 -22 13 -38 12 -51 -4z"/>
<path d="M411 261 c-10 -10 -22 -40 -26 -67 -4 -26 -13 -57 -21 -68 -38 -55
-10 -70 133 -70 126 -1 136 8 97 93 -25 55 -34 64 -81 86 -28 14 -55 30 -58
35 -9 15 -23 12 -44 -9z"/>
<path d="M4228 224 c-49 -55 -99 -74 -175 -67 -59 5 -63 4 -63 -14 0 -43 118
-61 190 -29 44 19 71 42 99 84 18 26 20 36 11 47 -18 22 -26 19 -62 -21z"/>
<path d="M133 3 c32 -2 81 -2 110 0 29 2 3 3 -58 3 -60 0 -84 -1 -52 -3z"/>
<path d="M653 3 c9 -2 23 -2 30 0 6 3 -1 5 -18 5 -16 0 -22 -2 -12 -5z"/>
</g>
</svg>
