<?xml version="1.0" standalone="no"?>
<!DOCTYPE svg PUBLIC "-//W3C//DTD SVG 20010904//EN"
 "http://www.w3.org/TR/2001/REC-SVG-20010904/DTD/svg10.dtd">
<svg version="1.0" xmlns="http://www.w3.org/2000/svg"
 width="138.000000pt" height="133.000000pt" viewBox="0 0 138.000000 133.000000"
 preserveAspectRatio="xMidYMid meet">
<metadata>
Created by potrace 1.13, written by Peter Selinger 2001-2015
</metadata>
<g transform="translate(0.000000,133.000000) scale(0.100000,-0.100000)"
fill="#000000" stroke="none">
<path d="M674 1226 c-3 -8 -4 -25 -1 -38 3 -18 5 -16 6 9 0 17 7 34 14 36 9 4
9 6 -1 6 -7 1 -15 -5 -18 -13z"/>
<path d="M710 1215 c0 -8 4 -15 10 -15 5 0 7 7 4 15 -4 8 -8 15 -10 15 -2 0
-4 -7 -4 -15z"/>
<path d="M825 1186 c-9 -59 -4 -81 20 -81 17 0 21 9 27 55 4 38 3 57 -5 62
-25 16 -36 6 -42 -36z m37 -2 c-4 -49 -12 -74 -22 -74 -11 0 -13 52 -4 88 9
32 30 21 26 -14z"/>
<path d="M710 1154 c0 -32 -2 -36 -21 -31 -16 4 -19 3 -11 -5 20 -20 42 -1 42
37 0 19 -2 35 -5 35 -3 0 -5 -16 -5 -36z"/>
<path d="M961 1140 c-36 -59 -37 -62 -12 -77 17 -11 22 -8 40 20 11 18 28 42
37 55 13 18 14 25 4 37 -21 25 -37 17 -69 -35z m69 21 c0 -3 -6 -13 -13 -22
-53 -67 -58 -72 -68 -62 -16 16 46 104 66 97 8 -4 15 -9 15 -13z"/>
<path d="M461 1161 c-11 -7 -12 -17 -5 -40 9 -28 10 -29 34 -16 l25 15 -25 -3
c-19 -1 -25 3 -25 18 0 45 95 23 110 -25 7 -23 -12 -80 -26 -80 -4 0 -7 -13
-6 -30 1 -16 6 -30 11 -30 4 0 6 10 3 22 -4 13 1 31 14 46 22 28 24 50 8 85
-18 39 -83 60 -118 38z"/>
<path d="M530 1113 c5 -2 10 -15 10 -29 0 -17 -7 -25 -25 -30 -30 -7 -30 -17
-5 -64 23 -42 26 -36 5 12 -14 34 -13 36 11 47 19 8 25 17 22 38 -2 14 -9 28
-16 29 -7 1 -8 0 -2 -3z"/>
<path d="M662 1073 c3 -26 38 -48 38 -24 0 6 -7 8 -15 5 -10 -4 -15 0 -15 15
0 19 3 20 23 11 21 -11 21 -10 3 4 -28 23 -38 20 -34 -11z"/>
<path d="M812 1068 c2 -15 11 -24 26 -26 28 -4 30 23 3 38 -28 15 -33 13 -29
-12z m38 -9 c0 -5 -7 -9 -15 -9 -8 0 -15 7 -15 15 0 9 6 12 15 9 8 -4 15 -10
15 -15z"/>
<path d="M800 1036 c0 -2 8 -10 18 -17 15 -13 16 -12 3 4 -13 16 -21 21 -21
13z"/>
<path d="M896 1024 c-4 -10 -1 -21 6 -26 19 -11 33 -4 33 18 0 24 -30 30 -39
8z m34 -9 c0 -8 -4 -15 -9 -15 -13 0 -22 16 -14 24 11 11 23 6 23 -9z"/>
<path d="M763 1016 c-4 -7 -15 -16 -23 -19 -10 -4 -8 -6 6 -6 14 -1 24 7 27
19 6 23 2 26 -10 6z"/>
<path d="M879 944 c28 -34 51 -68 51 -75 0 -7 -8 -22 -17 -33 -18 -21 -18 -21
5 -2 12 11 22 26 22 35 0 9 -25 43 -56 76 l-56 60 51 -61z"/>
<path d="M695 970 c-10 -11 -16 -22 -14 -24 2 -2 12 7 22 20 22 29 17 32 -8 4z"/>
<path d="M791 956 c7 -14 14 -24 17 -21 3 3 11 0 19 -6 25 -21 13 -4 -17 25
l-31 28 12 -26z"/>
<path d="M565 947 c10 -8 15 -19 11 -25 -4 -7 -2 -12 3 -12 6 0 11 6 11 13 0
15 -20 37 -34 37 -5 0 -2 -6 9 -13z"/>
<path d="M530 943 c0 -5 7 -18 15 -29 13 -18 14 -18 8 4 -5 22 -23 41 -23 25z"/>
<path d="M671 914 c0 -11 3 -14 6 -6 3 7 2 16 -1 19 -3 4 -6 -2 -5 -13z"/>
<path d="M861 905 c10 -11 19 -29 22 -40 4 -19 5 -19 6 1 0 11 -9 29 -21 40
-23 19 -23 19 -7 -1z"/>
<path d="M684 875 c4 -11 -2 -24 -19 -37 -14 -11 -25 -23 -25 -27 0 -5 12 -30
27 -56 33 -61 37 -90 18 -162 -8 -31 -15 -66 -14 -78 2 -47 31 107 34 185 2
47 1 72 -3 55 l-7 -30 -23 38 c-28 48 -28 53 3 73 20 13 28 14 40 4 28 -23 21
-6 -9 23 -17 17 -26 22 -22 12z"/>
<path d="M858 813 c6 -2 18 -2 25 0 6 3 1 5 -13 5 -14 0 -19 -2 -12 -5z"/>
<path d="M801 788 c0 -13 4 -32 9 -43 5 -14 7 -8 6 22 0 24 -4 43 -8 43 -5 0
-8 -10 -7 -22z"/>
<path d="M651 724 c0 -12 7 -28 17 -35 15 -12 16 -12 6 1 -7 8 -14 24 -17 35
-4 19 -5 19 -6 -1z"/>
<path d="M984 668 l-29 -33 33 29 32 30 45 -48 c25 -27 43 -52 40 -56 -2 -4 8
-5 22 -2 24 5 25 6 7 13 -10 4 -39 28 -64 53 -24 25 -47 46 -50 46 -4 0 -19
-15 -36 -32z"/>
<path d="M830 680 c0 -9 16 -40 35 -70 19 -30 35 -51 35 -47 0 5 -9 22 -20 37
-11 16 -27 44 -35 62 -8 18 -14 26 -15 18z"/>
<path d="M533 633 c15 -2 39 -2 55 0 15 2 2 4 -28 4 -30 0 -43 -2 -27 -4z"/>
<path d="M349 603 l-24 -28 28 24 c25 23 32 31 24 31 -2 0 -14 -12 -28 -27z"/>
<path d="M435 585 c28 -24 54 -44 58 -45 5 0 6 -10 2 -22 -6 -21 -5 -22 6 -4
10 17 8 23 -15 41 -14 11 -26 26 -26 33 0 7 -4 11 -9 8 -4 -3 -16 3 -26 14
-10 11 -23 20 -29 20 -6 0 12 -20 39 -45z"/>
<path d="M757 623 c-9 -16 -36 -109 -41 -144 -5 -30 -12 -38 -34 -42 -32 -6
-40 -1 -24 15 7 7 12 19 11 28 0 13 -1 13 -6 0 -3 -8 -12 -23 -21 -33 -8 -9
-12 -20 -8 -25 8 -8 320 -4 349 4 17 5 17 7 2 24 -15 17 -19 17 -32 4 -9 -9
-23 -12 -37 -8 -11 4 -21 7 -22 8 0 0 -5 12 -12 26 l-11 25 2 -25 c2 -24 0
-25 -75 -28 l-77 -3 6 38 c3 21 14 62 24 91 16 46 19 67 6 45z"/>
<path d="M806 610 c12 -14 31 -43 42 -65 12 -22 21 -36 22 -32 1 17 -39 83
-61 102 l-24 20 21 -25z"/>
<path d="M925 620 c-8 -14 8 -33 59 -71 36 -27 35 -26 -8 14 -29 26 -46 49
-42 56 4 6 5 11 2 11 -3 0 -8 -5 -11 -10z"/>
<path d="M1069 563 c-13 -16 -12 -17 4 -4 16 13 21 21 13 21 -2 0 -10 -8 -17
-17z"/>
<path d="M307 552 c-26 -28 -21 -37 36 -78 28 -21 54 -39 56 -41 3 -2 -6 -14
-18 -27 -16 -17 -21 -31 -16 -45 7 -23 30 -28 41 -9 5 8 2 9 -10 5 -10 -4 -19
-1 -23 9 -4 10 14 36 53 77 33 34 42 46 22 28 l-38 -35 -55 38 c-59 42 -64 50
-38 78 9 10 14 18 11 18 -3 0 -12 -8 -21 -18z"/>
<path d="M910 525 c0 -5 5 -17 10 -25 5 -8 10 -10 10 -5 0 6 -5 17 -10 25 -5
8 -10 11 -10 5z"/>
<path d="M1063 489 c19 -11 23 -45 5 -51 -23 -8 7 -15 32 -7 16 4 19 7 8 8
-10 1 -18 9 -18 19 0 20 -18 42 -34 42 -6 0 -3 -5 7 -11z"/>
<path d="M1141 427 c-13 -43 -28 -77 -35 -77 -7 0 -21 -9 -31 -20 -11 -12 -31
-20 -52 -20 -37 0 -41 10 -18 53 8 15 10 25 5 22 -14 -9 -48 -88 -58 -137
l-10 -48 32 1 c25 1 27 3 7 6 -21 4 -23 8 -17 45 9 54 9 55 51 50 33 -4 35 -6
21 -21 -23 -25 -20 -31 12 -30 23 2 24 2 4 6 -22 4 -22 5 9 44 24 30 38 39 62
39 20 0 27 3 19 8 -10 7 -8 22 8 72 11 35 19 68 17 74 -2 5 -13 -25 -26 -67z"/>
<path d="M1022 454 c10 -10 20 -16 22 -13 3 3 -5 11 -17 18 -21 13 -21 12 -5
-5z"/>
<path d="M280 410 c12 -8 13 -12 1 -19 -9 -6 -4 -10 18 -13 17 -2 31 -1 31 4
0 4 -7 8 -15 8 -8 0 -15 7 -15 15 0 8 -8 15 -17 15 -15 0 -16 -2 -3 -10z"/>
<path d="M1045 400 c-16 -7 -17 -9 -3 -9 9 -1 20 4 23 9 7 11 7 11 -20 0z"/>
<path d="M193 393 c9 -2 23 -2 30 0 6 3 -1 5 -18 5 -16 0 -22 -2 -12 -5z"/>
<path d="M1177 364 c-16 -21 -16 -25 -3 -30 8 -3 23 -4 33 -1 14 4 13 5 -4 6
-25 1 -29 11 -11 29 6 6 10 14 7 16 -2 2 -12 -7 -22 -20z"/>
<path d="M166 363 c-6 -14 -5 -15 5 -6 7 7 10 15 7 18 -3 3 -9 -2 -12 -12z"/>
<path d="M491 360 c42 -4 82 -16 112 -32 25 -14 48 -23 51 -20 4 3 -22 18 -56
33 -46 21 -78 28 -118 27 l-55 -1 66 -7z"/>
<path d="M298 353 c7 -3 16 -2 19 1 4 3 -2 6 -13 5 -11 0 -14 -3 -6 -6z"/>
<path d="M477 340 c68 -8 95 -22 86 -48 -4 -14 -3 -14 5 -3 24 34 -27 62 -107
60 -43 -2 -42 -2 16 -9z"/>
<path d="M684 334 c-18 -15 -18 -15 3 -4 19 9 35 4 92 -24 38 -20 71 -41 74
-48 2 -7 8 -9 13 -5 5 5 -2 17 -16 27 l-25 19 40 4 c32 3 29 4 -18 5 -35 1
-73 10 -97 22 -47 24 -42 24 -66 4z"/>
<path d="M142 315 c-15 -32 -15 -35 0 -35 6 0 8 3 5 6 -3 4 -2 15 4 26 6 11 9
22 6 24 -2 2 -9 -7 -15 -21z"/>
<path d="M278 323 c7 -3 16 -2 19 1 4 3 -2 6 -13 5 -11 0 -14 -3 -6 -6z"/>
<path d="M361 319 c-1 -9 9 -24 22 -35 22 -19 22 -19 6 1 -9 11 -19 27 -22 35
-5 13 -6 13 -6 -1z"/>
<path d="M1263 323 c21 -3 27 -9 23 -20 -5 -13 -4 -14 9 -3 21 18 9 30 -28 29
-31 -2 -31 -2 -4 -6z"/>
<path d="M190 290 c-6 -11 -8 -20 -6 -20 3 0 10 9 16 20 6 11 8 20 6 20 -3 0
-10 -9 -16 -20z"/>
<path d="M596 282 c-4 -7 11 -21 44 -37 27 -14 50 -23 50 -20 0 2 -18 14 -39
25 -22 10 -41 25 -43 32 -3 9 -6 9 -12 0z"/>
<path d="M298 273 c6 -2 18 -2 25 0 6 3 1 5 -13 5 -14 0 -19 -2 -12 -5z"/>
<path d="M1255 260 c-10 -11 -16 -22 -14 -24 2 -2 12 7 22 20 22 29 17 32 -8
4z"/>
<path d="M356 255 c-3 -9 -6 -22 -5 -28 0 -7 5 -1 10 12 5 13 8 26 5 28 -2 2
-6 -3 -10 -12z"/>
<path d="M421 259 c13 -8 97 -13 88 -5 -2 2 -26 6 -53 9 -30 3 -43 1 -35 -4z"/>
<path d="M170 248 c0 -12 7 -18 23 -17 15 0 17 2 7 6 -8 3 -18 11 -22 17 -5 7
-8 4 -8 -6z"/>
<path d="M298 253 c7 -3 16 -2 19 1 4 3 -2 6 -13 5 -11 0 -14 -3 -6 -6z"/>
<path d="M1098 243 c12 -2 30 -2 40 0 9 3 -1 5 -23 4 -22 0 -30 -2 -17 -4z"/>
<path d="M590 235 c0 -2 28 -19 63 -36 34 -17 76 -40 92 -51 l30 -20 -25 22
c-26 23 -160 94 -160 85z"/>
<path d="M1173 233 c9 -2 23 -2 30 0 6 3 -1 5 -18 5 -16 0 -22 -2 -12 -5z"/>
<path d="M308 223 c6 -2 18 -2 25 0 6 3 1 5 -13 5 -14 0 -19 -2 -12 -5z"/>
<path d="M700 216 c0 -3 9 -10 20 -16 11 -6 20 -8 20 -6 0 3 -9 10 -20 16 -11
6 -20 8 -20 6z"/>
<path d="M593 195 c0 -8 4 -12 9 -9 5 3 6 10 3 15 -9 13 -12 11 -12 -6z"/>
<path d="M870 190 c-6 -11 -8 -20 -6 -20 3 0 10 9 16 20 6 11 8 20 6 20 -3 0
-10 -9 -16 -20z"/>
<path d="M1018 203 c7 -3 16 -2 19 1 4 3 -2 6 -13 5 -11 0 -14 -3 -6 -6z"/>
<path d="M1046 166 c-11 -26 -22 -36 -43 -39 -27 -4 -27 -4 5 -6 17 0 32 1 32
3 0 2 7 20 15 40 8 20 13 36 10 36 -2 0 -11 -15 -19 -34z"/>
<path d="M456 172 c-3 -6 15 -22 41 -37 27 -15 63 -36 81 -47 17 -11 32 -17
32 -14 0 3 -25 20 -55 37 -53 30 -73 48 -39 35 14 -6 15 -4 4 9 -11 13 -15 13
-22 3 -7 -10 -11 -9 -22 5 -8 10 -17 14 -20 9z"/>
<path d="M530 173 c8 -3 18 -11 22 -17 4 -6 10 -7 15 -3 9 10 -16 27 -37 26
-13 -1 -13 -1 0 -6z"/>
<path d="M1102 157 c-12 -13 -22 -28 -22 -34 0 -12 49 -27 58 -18 3 3 -1 5 -9
5 -8 0 -21 5 -29 10 -12 7 -11 13 10 34 13 15 21 26 18 26 -2 0 -14 -10 -26
-23z"/>
<path d="M850 150 c0 -6 7 -10 15 -10 8 0 15 2 15 4 0 2 -7 6 -15 10 -8 3 -15
1 -15 -4z"/>
<path d="M1255 139 c4 -5 -1 -20 -11 -32 -16 -19 -15 -19 8 2 26 23 29 41 7
41 -6 0 -7 -5 -4 -11z"/>
<path d="M923 133 c9 -2 23 -2 30 0 6 3 -1 5 -18 5 -16 0 -22 -2 -12 -5z"/>
<path d="M1176 126 c-28 -13 -28 -13 -5 -19 12 -3 30 -2 38 3 14 8 14 9 1 10
-13 0 -13 1 0 10 21 14 1 11 -34 -4z"/>
<path d="M1175 85 c17 -8 37 -14 45 -14 8 0 -1 7 -20 14 -46 18 -64 17 -25 0z"/>
</g>
</svg>
